<svg display="none" xmlns="http://www.w3.org/2000/svg">
  <symbol
    id="expand"
    width="14"
    height="8"
    viewBox="0 0 14 8"
    fill="none"
    xmlns="http://www.w3.org/2000/svg"
  >
    <path
      opacity="0.4"
      d="M13 1L7 7L1 1"
      stroke=""
      stroke-width="2"
      stroke-linecap="round"
      stroke-linejoin="round"
    />
  </symbol>
  <symbol
    id="check"
    width="15"
    height="12"
    viewBox="0 0 15 12"
    fill="none"
    xmlns="http://www.w3.org/2000/svg"
  >
    <path
      d="M1.16602 5.99967L5.33268 10.1663L13.666 1.83301"
      stroke="#FF6F2B"
      stroke-width="2"
      stroke-linecap="round"
      stroke-linejoin="round"
    />
  </symbol>
  <symbol
    id="arrow-right"
    width="30"
    height="30"
    viewBox="0 0 30 30"
    xmlns="http://www.w3.org/2000/svg"
  >
    <path
      d="M6.25 15H23.75"
      stroke-width="2"
      stroke-linecap="round"
      stroke-linejoin="round"
    />
    <path
      d="M18.75 20L23.75 15"
      stroke-width="2"
      stroke-linecap="round"
      stroke-linejoin="round"
    />
    <path
      d="M18.75 10L23.75 15"
      stroke-width="2"
      stroke-linecap="round"
      stroke-linejoin="round"
    />
  </symbol>
  <symbol
    id="close"
    width="30"
    height="30"
    viewBox="0 0 30 30"
    fill="none"
    xmlns="http://www.w3.org/2000/svg"
  >
    <g opacity="0.3">
      <path
        d="M22.5 7.5L7.5 22.5"
        stroke="#2D2D30"
        stroke-width="2"
        stroke-linecap="round"
        stroke-linejoin="round"
      />
      <path
        d="M7.5 7.5L22.5 22.5"
        stroke="#2D2D30"
        stroke-width="2"
        stroke-linecap="round"
        stroke-linejoin="round"
      />
    </g>
  </symbol>
  <symbol
    id="minus"
    width="20"
    height="20"
    viewBox="0 0 20 20"
    fill="none"
    xmlns="http://www.w3.org/2000/svg"
  >
    <path
      d="M4.1665 10H15.8332"
      stroke="#2D2D30"
      stroke-width="2"
      stroke-linecap="round"
      stroke-linejoin="round"
    />
  </symbol>
  <symbol
    id="plus"
    width="20"
    height="20"
    viewBox="0 0 20 20"
    fill="none"
    xmlns="http://www.w3.org/2000/svg"
  >
    <path
      d="M10 4.16666V15.8333"
      stroke="#2D2D30"
      stroke-width="2"
      stroke-linecap="round"
      stroke-linejoin="round"
    />
    <path
      d="M4.1665 10H15.8332"
      stroke="#2D2D30"
      stroke-width="2"
      stroke-linecap="round"
      stroke-linejoin="round"
    />
  </symbol>
  <symbol
    id="remove-filter"
    width="13"
    height="13"
    viewBox="0 0 13 13"
    fill="none"
    xmlns="http://www.w3.org/2000/svg"
  >
    <path
      d="M9.40807 3.5921L3.59229 9.40789"
      stroke="#0090D4"
      stroke-linecap="round"
      stroke-linejoin="round"
    />
    <path
      d="M3.59229 3.5921L9.40807 9.40789"
      stroke="#0090D4"
      stroke-linecap="round"
      stroke-linejoin="round"
    />
  </symbol>
  <symbol
    id="sended-ok"
    viewBox="0 0 94 94"
    fill="none"
    xmlns="http://www.w3.org/2000/svg"
  >
    <path
      d="M47 92C71.8528 92 92 71.8528 92 47C92 22.1472 71.8528 2 47 2C22.1472 2 2 22.1472 2 47C2 71.8528 22.1472 92 47 92Z"
      stroke="#27AE60"
      stroke-width="4"
      stroke-linecap="round"
      stroke-linejoin="round"
    />
    <path
      d="M32 47.0001L42 57.0001L62 37.0001"
      stroke="#27AE60"
      stroke-width="4"
      stroke-linecap="round"
      stroke-linejoin="round"
    />
  </symbol>
</svg>
